<svg xmlns="http://www.w3.org/2000/svg" width="1400" height="420" viewBox="0 0 1400 420" role="img" aria-labelledby="title desc">
  <title id="title">One Dental official logo</title>
  <desc id="desc">One Dental wordmark with tooth swoosh and doctor names</desc>
  <g fill="none" fill-rule="evenodd">
    <path
      d="M927 74c60-58 158-50 247 16 53 40 125 54 184 5 47-38 112-55 151-14 57 60 39 192-41 314-1 1-3 2-4 0s-1-3 0-4c58-116 69-227 27-267-34-33-82-19-126 16-69 56-150 46-214-3-80-63-169-72-223-27-2 2-4 1-4-1-1-11-1-20 3-35z"
      fill="#F28E2B"
    />
    <path d="M1238 165l12 23 23 12-23 12-12 23-12-23-23-12 23-12z" fill="#F28E2B" />
    <text x="200" y="286" font-size="190" font-weight="800" font-family="Montserrat, Poppins, Arial, sans-serif" fill="#4A98A8" letter-spacing="-2">
      One Dental
    </text>
    <text x="220" y="355" font-size="48" font-weight="600" font-family="Montserrat, Poppins, Arial, sans-serif" fill="#4A98A8" letter-spacing="8">
      DR. MARINETTE AFABLE-PONTIVEROS
    </text>
    <text x="403" y="405" font-size="48" font-weight="600" font-family="Montserrat, Poppins, Arial, sans-serif" fill="#4A98A8" letter-spacing="8">
      DR. PONG PONTIVEROS
    </text>
  </g>
</svg>
